<svg width="32" height="32" viewBox="0 0 32 32" fill="none" xmlns="http://www.w3.org/2000/svg">
<path d="M25.0176 11.1336L24.5367 10.277C24.173 9.62915 23.9912 9.30524 23.6817 9.17607C23.3723 9.04691 23.0223 9.14883 22.3224 9.35267L21.1335 9.69637C20.6866 9.80213 20.2178 9.74213 19.8098 9.52698L19.4815 9.33261C19.1317 9.10262 18.8625 8.76352 18.7136 8.36493L18.3882 7.36755C18.1743 6.70753 18.0673 6.37752 17.8126 6.18876C17.558 6 17.2197 6 16.5431 6H15.4569C14.7804 6 14.4421 6 14.1874 6.18876C13.9327 6.37752 13.8258 6.70753 13.6118 7.36755L13.2864 8.36493C13.1375 8.76352 12.8683 9.10262 12.5185 9.33261L12.1902 9.52698C11.7822 9.74213 11.3134 9.80213 10.8666 9.69637L9.67762 9.35267C8.9777 9.14883 8.62775 9.04691 8.31831 9.17607C8.00888 9.30524 7.82702 9.62915 7.4633 10.277L6.98237 11.1336C6.64144 11.7408 6.47096 12.0445 6.50405 12.3677C6.53713 12.6909 6.76535 12.9514 7.22176 13.4723L8.22636 14.625C8.4719 14.944 8.64622 15.5 8.64622 15.9999C8.64622 16.5 8.47196 17.0558 8.22639 17.3749L7.22176 18.5276C6.76535 19.0486 6.53714 19.309 6.50405 19.6323C6.47096 19.9555 6.64144 20.2591 6.98237 20.8663L7.46329 21.7229C7.827 22.3707 8.00888 22.6947 8.31831 22.8238C8.62775 22.953 8.97771 22.8511 9.67764 22.6472L10.8665 22.3035C11.3134 22.1977 11.7823 22.2578 12.1904 22.473L12.5186 22.6674C12.8684 22.8974 13.1375 23.2364 13.2864 23.635L13.6118 24.6325C13.8258 25.2925 13.9327 25.6225 14.1874 25.8113C14.4421 26 14.7804 26 15.4569 26H16.5431C17.2197 26 17.558 26 17.8126 25.8113C18.0673 25.6225 18.1743 25.2925 18.3882 24.6325L18.7137 23.635C18.8625 23.2364 19.1316 22.8974 19.4815 22.6674L19.8096 22.473C20.2177 22.2578 20.6865 22.1977 21.1335 22.3035L22.3224 22.6472C23.0223 22.8511 23.3723 22.953 23.6817 22.8238C23.9912 22.6947 24.173 22.3707 24.5367 21.7229L25.0176 20.8663C25.3586 20.2591 25.529 19.9555 25.496 19.6323C25.4628 19.309 25.2346 19.0486 24.7782 18.5276L23.7736 17.3749C23.5281 17.0558 23.3537 16.5 23.3537 15.9999C23.3537 15.5 23.5282 14.944 23.7736 14.625L24.7782 13.4723C25.2346 12.9514 25.4628 12.6909 25.496 12.3677C25.529 12.0445 25.3586 11.7408 25.0176 11.1336Z" stroke="#22004D" stroke-width="1.5" stroke-linecap="round" stroke-linejoin="round"/>
<path d="M19.3683 15.9922C19.3683 17.9252 17.8415 19.4922 15.9581 19.4922C14.0746 19.4922 12.5479 17.9252 12.5479 15.9922C12.5479 14.0592 14.0746 12.4922 15.9581 12.4922C17.8415 12.4922 19.3683 14.0592 19.3683 15.9922Z" stroke="#22004D" stroke-width="1.5" stroke-linecap="round" stroke-linejoin="round"/>
</svg>
