<svg width="20" height="20" viewBox="0 0 20 20" fill="none" xmlns="http://www.w3.org/2000/svg">
<path d="M12.3202 2.00002C11.7052 1.9983 11.0959 2.12365 10.5277 2.36882C9.95941 2.61399 9.44338 2.97413 9.00941 3.42841L3.27511 9.40736C3.09919 9.59039 3.00023 9.83878 3 10.0979C2.99977 10.357 3.09828 10.6055 3.27386 10.7889C3.44944 10.9723 3.68771 11.0755 3.93626 11.0757C4.1848 11.0759 4.42326 10.9733 4.59917 10.7902L10.336 4.80867C10.8696 4.29722 11.5723 4.02053 12.297 4.0364C13.0218 4.05227 13.7126 4.35947 14.2252 4.89383C14.7378 5.42818 15.0325 6.14835 15.0478 6.90387C15.063 7.65939 14.7976 8.39182 14.3069 8.94814L7.68908 15.8468C7.51166 16.0192 7.27698 16.113 7.03451 16.1085C6.79203 16.1041 6.56068 16.0017 6.3892 15.8229C6.21771 15.6442 6.11949 15.403 6.11521 15.1502C6.11093 14.8975 6.20093 14.6528 6.36626 14.4679L12.9841 7.56918C13.16 7.38598 13.2589 7.13743 13.259 6.87821C13.2591 6.619 13.1605 6.37035 12.9847 6.18697C12.809 6.0036 12.5706 5.90051 12.3219 5.90038C12.0732 5.90026 11.8347 6.00312 11.6588 6.18632L5.0397 13.0876C4.54908 13.6439 4.28365 14.3764 4.29887 15.1319C4.3141 15.8874 4.60879 16.6076 5.12139 17.1419C5.63399 17.6763 6.32484 17.9835 7.0496 17.9994C7.77437 18.0152 8.47698 17.7385 9.01065 17.2271L15.6285 10.3284C16.0644 9.87627 16.41 9.3386 16.6454 8.74645C16.8808 8.1543 17.0013 7.51939 17 6.8784C16.9987 5.585 16.5052 4.34496 15.6279 3.43039C14.7505 2.51581 13.561 2.00139 12.3202 2.00002Z" fill="#22004D"/>
</svg>
