<svg width="20" height="20" viewBox="0 0 20 20" fill="none" xmlns="http://www.w3.org/2000/svg">
<path fill-rule="evenodd" clip-rule="evenodd" d="M5.61865 8.14828C5.92239 8.45202 5.92239 8.94448 5.61865 9.24823C4.93796 9.92892 4.55556 10.8521 4.55556 11.8148C4.55556 12.7774 4.93796 13.7006 5.61865 14.3813C6.29934 15.062 7.22255 15.4444 8.18518 15.4444C9.14782 15.4444 10.071 15.062 10.7517 14.3813C11.0555 14.0776 11.5479 14.0776 11.8517 14.3813C12.1554 14.6851 12.1554 15.1775 11.8517 15.4813C10.8793 16.4537 9.56038 17 8.18518 17C6.80999 17 5.49112 16.4537 4.51871 15.4813C3.54629 14.5089 3 13.19 3 11.8148C3 10.4396 3.54629 9.12069 4.51871 8.14828C4.82245 7.84453 5.31491 7.84453 5.61865 8.14828Z" fill="#22004D"/>
<path fill-rule="evenodd" clip-rule="evenodd" d="M14.3814 11.8517C14.0776 11.548 14.0776 11.0555 14.3814 10.7518C15.062 10.0711 15.4444 9.14786 15.4444 8.18522C15.4444 7.22258 15.062 6.29936 14.3814 5.61867C13.7007 4.93797 12.7775 4.55557 11.8148 4.55557C10.8522 4.55557 9.92897 4.93797 9.24828 5.61867C8.94454 5.92241 8.45208 5.92241 8.14833 5.61867C7.84459 5.31492 7.84459 4.82246 8.14833 4.51872C9.12075 3.5463 10.4396 3 11.8148 3C13.19 3 14.5089 3.5463 15.4813 4.51872C16.4537 5.49113 17 6.81001 17 8.18522C17 9.56043 16.4537 10.8793 15.4813 11.8517C15.1776 12.1555 14.6851 12.1555 14.3814 11.8517Z" fill="#22004D"/>
<path fill-rule="evenodd" clip-rule="evenodd" d="M12.3648 7.6352C12.6685 7.93894 12.6685 8.43141 12.3648 8.73515L8.73516 12.3648C8.43142 12.6685 7.93895 12.6685 7.63521 12.3648C7.33147 12.0611 7.33147 11.5686 7.63521 11.2649L11.2648 7.6352C11.5686 7.33145 12.061 7.33145 12.3648 7.6352Z" fill="#22004D"/>
</svg>
