<svg width="116" height="32" viewBox="0 0 116 32" fill="none" xmlns="http://www.w3.org/2000/svg">
<path d="M44.4172 4.40722V12.879H45.7331L52.9075 4.40722H55.7649L49.4773 11.9811C48.4201 13.2292 48.0751 13.4896 47.4758 13.4896V14.5334C48.0773 14.5334 48.8204 14.9105 49.7626 16.0711L56.7092 24.7179H53.5643L45.8746 15.0856H44.4172V24.7179H42.0154V4.40722H44.4172Z" fill="#22004D"/>
<path d="M63.6271 9.80366C66.2279 9.80366 67.3713 11.3413 67.5726 12.5894H68.6009V10.21H70.8877V24.7179H68.6009V22.3385H67.5726C67.3448 23.5866 66.2279 25.1243 63.6271 25.1243C59.6528 25.1243 57.167 21.8446 57.167 17.6671V17.2316C57.167 13.0833 59.655 9.80366 63.6271 9.80366ZM64.0849 23.1219C66.9422 23.1219 68.6009 21.0028 68.6009 17.6671V17.2316C68.6009 13.8959 66.9422 11.8352 64.0849 11.8352C61.2275 11.8352 59.5113 13.8959 59.5113 17.2316V17.6671C59.5113 21.0028 61.2828 23.1219 64.0849 23.1219Z" fill="#22004D"/>
<path d="M78.719 21.2071C79.2056 22.8907 79.2321 22.976 79.2321 23.847H80.2605C80.2605 22.976 80.2893 22.8885 80.7758 21.2071L83.9782 10.21H86.5503L79.9465 31.9708L77.3744 32L79.7762 24.718H77.3744L72.7721 10.21H75.3442L78.7168 21.2071H78.719Z" fill="#22004D"/>
<path d="M93.9613 9.80366C98.5924 9.80366 100.85 13.0833 100.85 17.2316V17.6671C100.85 21.8446 98.5924 25.1243 93.9613 25.1243C89.3303 25.1243 87.1297 21.8446 87.1297 17.6671V17.2316C87.1297 13.0833 89.4165 9.80366 93.9613 9.80366ZM93.9613 23.1803C96.8187 23.1803 98.5637 21.0051 98.5637 17.6671V17.2316C98.5637 13.8959 96.8187 11.7768 93.9613 11.7768C91.104 11.7768 89.4165 13.8959 89.4165 17.2316V17.6671C89.4165 21.0028 91.1615 23.1803 93.9613 23.1803Z" fill="#22004D"/>
<path d="M105.139 10.21V12.356H106.167C106.91 10.2953 108.768 9.80366 110.226 9.80366C114.114 9.80366 116 12.356 116 16.5357V24.7179H113.713V16.5357C113.713 13.2 111.942 11.806 109.425 11.806C106.481 11.806 105.137 13.5749 105.137 16.9129V24.7179H102.85V10.21H105.139Z" fill="#22004D"/>
<path d="M26.0542 13.1484L27.6621 12.5423C28.7612 12.1293 29.3606 10.8969 28.9846 9.77225C27.463 5.22658 23.9156 1.64392 19.4305 0.110737C18.3379 -0.261896 17.1481 0.337459 16.75 1.43515L16.1573 3.06711C15.6088 4.57784 13.5056 4.58233 12.9505 3.07384L12.3534 1.44638C11.9464 0.341949 10.7455 -0.259651 9.64414 0.119716C5.17671 1.65963 1.63815 5.24903 0.118782 9.78347C-0.25719 10.9036 0.339942 12.127 1.43026 12.5401L3.03367 13.1484C4.51765 13.7096 4.51323 15.8421 3.02704 16.3988L1.41699 17.0004C0.333307 17.4067 -0.259402 18.6189 0.109935 19.7301C1.62709 24.2915 5.18335 27.8966 9.67953 29.4342C10.7698 29.8069 11.9575 29.2098 12.3556 28.1166L12.9483 26.4891C13.499 24.9761 15.611 24.9806 16.1551 26.4958L16.7434 28.1278C17.1348 29.2142 18.3114 29.8091 19.3929 29.4432C23.8957 27.9168 27.4652 24.3027 28.989 19.739C29.3606 18.6234 28.7656 17.4045 27.6753 16.9982L26.0609 16.3966C24.5724 15.8421 24.568 13.7073 26.0542 13.1461V13.1484ZM23.2344 16.3988L18.7957 18.051C18.3335 18.2261 17.973 18.6077 17.785 19.0768L16.1573 23.5821C15.6088 25.0951 13.5012 25.0951 12.9527 23.5821L11.3073 19.0768C11.1348 18.6077 10.7765 18.2238 10.2966 18.051L5.85788 16.3988C4.38496 15.8421 4.38496 13.7029 5.85788 13.1461L10.2966 11.476C10.7765 11.3009 11.137 10.9373 11.3073 10.4502L12.9527 5.94491C13.5012 4.44764 15.6088 4.44764 16.1573 5.94491L17.785 10.4502C17.973 10.9373 18.3335 11.3032 18.7957 11.476L23.2344 13.1461C24.725 13.7029 24.725 15.8421 23.2344 16.3988Z" fill="#22004D"/>
</svg>
