<svg width="24" height="24" viewBox="0 0 24 24" fill="none" xmlns="http://www.w3.org/2000/svg">
<path d="M15.7501 16.2353L19.5 20M17.625 11.5294C17.625 15.168 14.6869 18.1176 11.0625 18.1176C7.43813 18.1176 4.5 15.168 4.5 11.5294C4.5 7.89084 7.43813 4.94118 11.0625 4.94118M15.2812 4L15.523 4.65603C15.8401 5.51626 15.9986 5.94638 16.3112 6.26014C16.6238 6.57391 17.0522 6.73306 17.9091 7.05137L18.5625 7.29412L17.9091 7.53687C17.0522 7.85519 16.6238 8.01435 16.3112 8.32811C15.9986 8.64187 15.8401 9.07199 15.523 9.93222L15.2812 10.5882L15.0395 9.93222C14.7224 9.07199 14.5639 8.64187 14.2513 8.32811C13.9387 8.01435 13.5103 7.85519 12.6534 7.53687L12 7.29412L12.6534 7.05137C13.5103 6.73306 13.9387 6.57391 14.2513 6.26014C14.5639 5.94638 14.7224 5.51626 15.0395 4.65603L15.2812 4Z" stroke="#22004D" stroke-width="1.5" stroke-linecap="round" stroke-linejoin="round"/>
</svg>
