<svg width="32" height="32" viewBox="0 0 32 32" fill="none" xmlns="http://www.w3.org/2000/svg">
<rect width="32" height="32" rx="16" fill="#22004D"/>
<path d="M10.0873 9.08139C9.49326 8.78439 8.83471 9.34939 9.03772 9.9819L10.4668 14.4235C10.4949 14.5108 10.5465 14.5887 10.6159 14.6487C10.6853 14.7086 10.7699 14.7484 10.8604 14.7635L16.7953 15.753C17.0738 15.7995 17.0738 16.1995 16.7953 16.246L10.8609 17.235C10.7703 17.2501 10.6856 17.2897 10.6161 17.3497C10.5466 17.4097 10.495 17.4876 10.4668 17.575L9.03772 22.0181C8.83421 22.6506 9.49276 23.2156 10.0873 22.9186L22.5852 16.671C23.1383 16.3945 23.1383 15.606 22.5852 15.329L10.0873 9.08139Z" fill="#F4F2F6"/>
</svg>
