<svg width="20" height="20" viewBox="0 0 20 20" fill="none" xmlns="http://www.w3.org/2000/svg">
<path fill-rule="evenodd" clip-rule="evenodd" d="M16.0413 6.47331C16.5708 6.47331 17 6.78671 17 7.17331V12.7733C17 13.1599 16.5708 13.4733 16.0413 13.4733C15.5118 13.4733 15.0826 13.1599 15.0826 12.7733V7.17331C15.0826 6.78671 15.5118 6.47331 16.0413 6.47331Z" fill="#22004D"/>
<path fill-rule="evenodd" clip-rule="evenodd" d="M7.4587 6.47331C7.98817 6.47331 8.4174 6.78671 8.4174 7.17331V12.7733C8.4174 13.1599 7.98817 13.4733 7.4587 13.4733C6.92923 13.4733 6.50001 13.1599 6.50001 12.7733L6.50001 7.17331C6.50001 6.78671 6.92923 6.47331 7.4587 6.47331Z" fill="#22004D"/>
<path fill-rule="evenodd" clip-rule="evenodd" d="M11.5 3C12.0295 3 12.4587 3.34822 12.4587 3.77778L12.4587 16.2222C12.4587 16.6518 12.0295 17 11.5 17C10.9705 17 10.5413 16.6518 10.5413 16.2222L10.5413 3.77778C10.5413 3.34822 10.9705 3 11.5 3Z" fill="#22004D"/>
<path fill-rule="evenodd" clip-rule="evenodd" d="M3.95869 6.47331C4.48817 6.47331 4.91739 6.78671 4.91739 7.17331V12.7733C4.91739 13.1599 4.48817 13.4733 3.95869 13.4733C3.42922 13.4733 3 13.1599 3 12.7733V7.17331C3 6.78671 3.42922 6.47331 3.95869 6.47331Z" fill="#22004D"/>
</svg>
