<svg width="24" height="24" viewBox="0 0 24 24" fill="none" xmlns="http://www.w3.org/2000/svg">
<path d="M16.6667 4V10.6667M20 7.33333H13.3333M10.6667 7.33333C10.6667 5.49238 9.17428 4 7.33333 4C5.49238 4 4 5.49238 4 7.33333C4 9.17428 5.49238 10.6667 7.33333 10.6667C9.17428 10.6667 10.6667 9.17428 10.6667 7.33333ZM20 16.6667C20 14.8257 18.5076 13.3333 16.6667 13.3333C14.8257 13.3333 13.3333 14.8257 13.3333 16.6667C13.3333 18.5076 14.8257 20 16.6667 20C18.5076 20 20 18.5076 20 16.6667ZM10.6667 16.6667C10.6667 14.8257 9.17428 13.3333 7.33333 13.3333C5.49238 13.3333 4 14.8257 4 16.6667C4 18.5076 5.49238 20 7.33333 20C9.17428 20 10.6667 18.5076 10.6667 16.6667Z" stroke="#22004D" stroke-width="1.5" stroke-linecap="round" stroke-linejoin="round"/>
</svg>
